<svg xmlns="http://www.w3.org/2000/svg" version="1.1" x="0px" y="0px" viewBox="0 0 135 40" xml:space="preserve" height="45" width="152"><style type="text/css">.st0{fill:#FFFFFF;fill-opacity:0;}.st1{fill:#A6A6A6;}.st2{fill:#FFFFFF;stroke:#FFFFFF;stroke-width:0.2;stroke-miterlimit:10;}.st3{fill:#FFFFFF;}.st4{fill:url(#SVGID_1_);}.st5{fill:url(#SVGID_2_);}.st6{fill:url(#SVGID_3_);}.st7{fill:url(#SVGID_4_);}.st8{opacity:0.2;enable-background:new;}.st9{opacity:0.12;enable-background:new;}.st10{opacity:0.25;fill:#FFFFFF;enable-background:new;}</style><rect x="-10" y="-10" class="st0" width="155" height="60"/><path d="M5 0h125c2.8 0 5 2.2 5 5v30c0 2.8-2.2 5-5 5H5c-2.8 0-5-2.2-5-5V5C0 2.2 2.2 0 5 0z"/><path class="st1" d="M130 0.8c2.3 0 4.2 1.9 4.2 4.2v30c0 2.3-1.9 4.2-4.2 4.2H5c-2.3 0-4.2-1.9-4.2-4.2l0 0V5c0-2.3 1.9-4.2 4.2-4.2l0 0H130M130 0H5C2.2 0 0 2.2 0 5v30c0 2.8 2.2 5 5 5h125c2.8 0 5-2.2 5-5V5C135 2.2 132.8 0 130 0z"/><path class="st2" d="M47.4 10.2c0 0.7-0.2 1.5-0.8 2 -0.6 0.6-1.4 0.9-2.2 0.9 -1.7 0-3.1-1.4-3.1-3.2 0-0.8 0.3-1.6 0.9-2.2 0.6-0.6 1.4-0.9 2.2-0.9 0.4 0 0.8 0.1 1.2 0.2 0.4 0.1 0.7 0.4 0.9 0.7l-0.5 0.5c-0.4-0.5-1-0.7-1.6-0.7 -1.3 0-2.3 1-2.3 2.3 0 0 0 0.1 0 0.1 0 1.3 1 2.4 2.3 2.4 0.6 0 1.2-0.2 1.7-0.7 0.3-0.3 0.5-0.8 0.5-1.2h-2.2V9.8h2.9C47.4 9.9 47.4 10.1 47.4 10.2z"/><path class="st2" d="M52 7.7h-2.7v1.9h2.5v0.7h-2.5v1.9H52V13h-3.5V7H52V7.7z"/><path class="st2" d="M55.3 13h-0.8V7.7h-1.7V7H57v0.7h-1.7V13z"/><path class="st2" d="M59.9 13V7h0.8v6H59.9z"/><path class="st2" d="M64.1 13h-0.8V7.7h-1.7V7h4.1v0.7h-1.7V13z"/><path class="st2" d="M73.6 12.2c-1.2 1.2-3.2 1.2-4.4 0C68 11 68 9 69.2 7.8c1.2-1.2 3.2-1.2 4.4 0 0 0 0 0 0 0C74.8 9 74.8 11 73.6 12.2zM69.8 11.7c0.9 0.9 2.4 0.9 3.3 0 0.9-1 0.9-2.5 0-3.4 -0.9-0.9-2.4-0.9-3.3 0C68.9 9.3 68.9 10.7 69.8 11.7z"/><path class="st2" d="M75.6 13V7h0.9l2.9 4.7 0 0v-1.2V7h0.8v6h-0.8l-3.1-4.9 0 0v1.2V13H75.6z"/><path class="st3" d="M68.1 21.8c-2.3 0-4.2 1.9-4.2 4.3 0 2.3 1.9 4.2 4.3 4.2 2.3 0 4.2-1.9 4.2-4.2 0-2.3-1.8-4.2-4.1-4.3C68.2 21.7 68.2 21.7 68.1 21.8zM68.1 28.6c-1.4 0.1-2.7-1-2.8-2.4 -0.1-1.4 1-2.7 2.4-2.8 1.4-0.1 2.7 1 2.8 2.4 0 0.1 0 0.1 0 0.2C70.6 27.4 69.6 28.5 68.1 28.6 68.2 28.6 68.2 28.6 68.1 28.6zM58.8 21.8c-2.3 0-4.2 1.9-4.2 4.3 0 2.3 1.9 4.2 4.3 4.2 2.3 0 4.2-1.9 4.2-4.2 0-2.3-1.8-4.2-4.1-4.3C58.9 21.7 58.9 21.7 58.8 21.8L58.8 21.8zM58.8 28.6c-1.4 0.1-2.7-1-2.8-2.4 -0.1-1.4 1-2.7 2.4-2.8 1.4-0.1 2.7 1 2.8 2.4 0 0.1 0 0.1 0 0.2C61.3 27.4 60.2 28.5 58.8 28.6 58.9 28.6 58.8 28.6 58.8 28.6L58.8 28.6zM47.7 23.1v1.8h4.3c-0.1 0.8-0.4 1.6-1 2.3 -0.9 0.9-2.1 1.4-3.3 1.3 -2.7 0-4.8-2.1-4.8-4.8s2.1-4.8 4.8-4.8c1.2 0 2.4 0.4 3.3 1.3l1.3-1.3c-1.2-1.2-2.8-1.9-4.5-1.9 -3.6-0.1-6.7 2.7-6.9 6.3 -0.1 3.6 2.7 6.7 6.3 6.9 0.2 0 0.3 0 0.5 0 1.7 0.1 3.4-0.6 4.6-1.8 1-1.2 1.6-2.7 1.6-4.2 0-0.4 0-0.8-0.1-1.1L47.7 23.1zM93.1 24.5c-0.5-1.6-2-2.6-3.6-2.7 -2.2 0-4 1.8-4 4 0 0.1 0 0.2 0 0.3 0 2.3 1.8 4.2 4.1 4.2 0.1 0 0.1 0 0.2 0 1.4 0 2.8-0.7 3.5-1.9l-1.4-1c-0.4 0.7-1.2 1.2-2.1 1.2 -0.9 0-1.7-0.5-2.1-1.3l5.7-2.3L93.1 24.5zM87.2 25.9c-0.1-1.3 0.9-2.4 2.2-2.5 0 0 0 0 0 0 0.7 0 1.3 0.3 1.6 0.9L87.2 25.9zM82.6 30h1.9V17.5h-1.9V30zM79.6 22.7L79.6 22.7c-0.6-0.6-1.5-1-2.3-1 -2.3 0.1-4.2 2.1-4 4.5 0.1 2.2 1.9 3.9 4 4 0.9 0 1.7-0.4 2.2-1h0.1v0.6c0 1.6-0.9 2.5-2.3 2.5 -1 0-1.8-0.6-2.1-1.5l-1.6 0.7c0.6 1.5 2.1 2.5 3.8 2.5 2.2 0 4-1.3 4-4.4V22h-1.7V22.7zM77.4 28.6c-1.4-0.1-2.5-1.4-2.4-2.8 0.1-1.3 1.1-2.2 2.4-2.4 1.3 0.1 2.3 1.2 2.3 2.5 0 0 0 0 0 0.1 0.1 1.3-0.9 2.5-2.2 2.6C77.5 28.6 77.5 28.6 77.4 28.6L77.4 28.6zM101.8 17.5h-4.5V30h1.9v-4.7h2.6c2.1 0.2 4-1.5 4.2-3.6 0.2-2.1-1.5-4-3.6-4.2C102.2 17.5 102 17.5 101.8 17.5L101.8 17.5zM101.8 23.5h-2.6v-4.3h2.7c1.2 0 2.1 1 2.1 2.1S103 23.5 101.8 23.5L101.8 23.5zM113.3 21.7c-1.4-0.1-2.7 0.7-3.3 1.9l1.7 0.7c0.3-0.6 1-1 1.7-0.9 1-0.1 1.9 0.6 2 1.6 0 0 0 0 0 0v0.1c-0.6-0.3-1.3-0.5-1.9-0.5 -1.8 0-3.6 1-3.6 2.8 0.1 1.6 1.4 2.8 3 2.8 0 0 0.1 0 0.1 0 1 0.1 1.9-0.4 2.4-1.2h0.1v1h1.8v-4.8C117.2 23 115.5 21.7 113.3 21.7L113.3 21.7zM113.1 28.5c-0.6 0-1.5-0.3-1.5-1.1 0-1 1.1-1.3 2-1.3 0.6 0 1.2 0.1 1.7 0.4C115.2 27.7 114.3 28.6 113.1 28.5L113.1 28.5zM123.7 22l-2.1 5.4h-0.1l-2.2-5.4h-2l3.3 7.6 -1.9 4.2h1.9l5.1-11.8H123.7zM106.9 30h1.9V17.5h-1.9V30z"/><linearGradient id="SVGID_1_" gradientUnits="userSpaceOnUse" x1="21.8025" y1="598.7125" x2="5.0225" y2="615.4925" gradientTransform="matrix(1 0 0 1 0 -590)"><stop offset="0" stop-color="#00A0FF"/><stop offset="1.000000e-02" stop-color="#00A1FF"/><stop offset="0.26" stop-color="#00BEFF"/><stop offset="0.51" stop-color="#00D2FF"/><stop offset="0.76" stop-color="#00DFFF"/><stop offset="1" stop-color="#00E3FF"/></linearGradient><path class="st4" d="M10.4 7.5C10.1 7.9 9.9 8.4 10 8.9v22.1c0 0.5 0.1 1 0.5 1.4l0.1 0.1 12.4-12.4v-0.3L10.4 7.5 10.4 7.5z"/><linearGradient id="SVGID_2_" gradientUnits="userSpaceOnUse" x1="33.83" y1="610" x2="9.64" y2="610" gradientTransform="matrix(1 0 0 1 0 -590)"><stop offset="0" stop-color="#FFE000"/><stop offset="0.41" stop-color="#FFBD00"/><stop offset="0.78" stop-color="#FFA500"/><stop offset="1" stop-color="#FF9C00"/></linearGradient><path class="st5" d="M27 24.3l-4.1-4.1v-0.3l4.1-4.1 0.1 0 4.9 2.8c1.4 0.8 1.4 2.1 0 2.9l-4.9 2.8L27 24.3z"/><linearGradient id="SVGID_3_" gradientUnits="userSpaceOnUse" x1="24.8275" y1="612.2975" x2="2.0675" y2="635.0475" gradientTransform="matrix(1 0 0 1 0 -590)"><stop offset="0" stop-color="#FF3A44"/><stop offset="1" stop-color="#C31162"/></linearGradient><path class="st6" d="M27.1 24.2L22.9 20 10.4 32.5c0.6 0.5 1.5 0.5 2.1 0.1L27.1 24.2"/><linearGradient id="SVGID_4_" gradientUnits="userSpaceOnUse" x1="7.2975" y1="590.1825" x2="17.4575" y2="600.3425" gradientTransform="matrix(1 0 0 1 0 -590)"><stop offset="0" stop-color="#32A071"/><stop offset="7.000000e-02" stop-color="#2DA771"/><stop offset="0.48" stop-color="#15CF74"/><stop offset="0.8" stop-color="#06E775"/><stop offset="1" stop-color="#00F076"/></linearGradient><path class="st7" d="M27.1 15.8L12.5 7.5C11.9 7 11 7 10.4 7.5L22.9 20 27.1 15.8z"/><path class="st8" d="M27 24.1l-14.5 8.2c-0.6 0.4-1.4 0.4-2 0l0 0 -0.1 0.1 0 0 0.1 0.1 0 0c0.6 0.4 1.4 0.4 2 0l14.6-8.3L27 24.1z"/><path class="st9" d="M10.4 32.3c-0.3-0.4-0.5-0.9-0.5-1.4v0.2c0 0.5 0.1 1 0.5 1.4V32.3L10.4 32.3z"/><path class="st9" d="M32 21.3l-5 2.8 0.1 0.1 4.9-2.8c0.6-0.3 0.9-0.8 1-1.4l0 0C32.9 20.6 32.5 21 32 21.3z"/><path class="st10" d="M12.5 7.6L32 18.7c0.5 0.3 0.9 0.7 1 1.3l0 0c-0.1-0.6-0.4-1.2-1-1.4L12.5 7.5C11.1 6.7 10 7.4 10 8.9v0.1C10 7.5 11.1 6.8 12.5 7.6z"/></svg>
