<svg xmlns="http://www.w3.org/2000/svg" xmlns:xlink="http://www.w3.org/1999/xlink" width="121" height="12" viewBox="0 0 121 12">
    <defs>
        <path id="a" d="M32.318 11.546h-4.14L26.133 8.38h-.775v3.166h-3.628V.466h5.302c1.923 0 3.147.49 3.907 1.266.651.665.992 1.488.992 2.628v.031c0 1.615-.821 2.739-2.14 3.388l2.135 3.182L37.485 0l5.856 11.546h-3.89l-1.966-4.037-1.966 4.037h-3.202zM46.09 12L40.234.454h3.89l1.966 4.037L48.056.454h3.89L46.09 12zM54.69 0l5.856 11.546h-3.89L54.69 7.509l-1.966 4.037h-3.89L54.689 0zm-26.37 4.66V4.63c0-.713-.544-1.06-1.38-1.06h-1.582v2.168h1.566c.868 0 1.395-.396 1.395-1.077zM13.97 3.6h-3.193V.466h10.014V3.6H17.6v7.946h-3.628V3.6zM0 9.884l1.938-2.358a6.134 6.134 0 0 0 3.798 1.297c.651 0 .93-.174.93-.474v-.032c0-.317-.34-.49-1.504-.728C2.73 7.082.59 6.369.59 4.027v-.031C.59 1.89 2.201.26 5.194.26c2.093 0 3.643.506 4.899 1.52l-1.768 2.5A5.61 5.61 0 0 0 5.07 3.188c-.542 0-.79.19-.79.46v.031c0 .3.294.49 1.442.712 2.775.523 4.635 1.346 4.635 3.578V8c0 2.327-1.876 3.752-4.79 3.752-2.202 0-4.186-.633-5.566-1.868zM77.727 7.31v-5.4h.938v5.332c0 1.293.651 1.956 1.909 1.956 1.269 0 1.932-.675 1.932-1.934V1.91h.949V7.31c0 1.785-1.03 2.78-2.881 2.78-1.84 0-2.847-.995-2.847-2.78zM87 1.91h1.243l2.564 6.281h.022l2.565-6.282h1.242v7.91H93.7V3.525h-.023l-2.54 6.292h-.647l-2.54-6.292h-.023v6.292H87V1.91zm11.455 0h1.242l2.564 6.281h.023l2.564-6.282h1.243v7.91h-.938V3.525h-.022l-2.54 6.292h-.647l-2.54-6.292h-.023v6.292h-.926V1.91zm11.454 7.908V1.91h.818v7.91h-.818zm6.497-7.028H114v-.88h5.727v.88h-2.405v7.028h-.916V2.79zm-44.75 2.571c2.054.662 2.799 1.345 2.799 2.578 0 1.278-1.117 2.152-2.753 2.152-1.925 0-3.075-.972-3.247-2.76h.947c.198 1.276.938 1.886 2.311 1.886 1.095 0 1.817-.505 1.817-1.267 0-.796-.53-1.233-2.178-1.748-1.884-.617-2.515-1.166-2.515-2.22 0-1.221 1.038-2.073 2.527-2.073s2.605.885 2.865 2.286c.018.09.031.191.031.191h-.945c-.248-1.042-.936-1.603-1.963-1.603-.959 0-1.59.471-1.59 1.2 0 .605.451.93 1.895 1.378z"/>
    </defs>
    <use fill="#FFF" fill-rule="evenodd" xlink:href="#a"/>
</svg>
